PathFileType	4	(X/Y/Z)	C:\Users\Vitor Bertoli\OneDrive\Documents\Yolotestes\IMG_0211_Sports2D\IMG_0211_Sports2D_m_person00.trc
DataRate	CameraRate	NumFrames	NumMarkers	Units	OrigDataRate	OrigDataStartFrame	OrigNumFrames
116	116	6	22	m	116	163	436
Frame#	Time	Hip			RHip			RKnee			RAnkle			RBigToe			RSmallToe			RHeel			LHip			LKnee			LAnkle			LBigToe			LSmallToe			LHeel			Neck			Head			Nose			RShoulder			RElbow			RWrist			LShoulder			LElbow			LWrist		
		X1	Y1	Z1	X2	Y2	Z2	X3	Y3	Z3	X4	Y4	Z4	X5	Y5	Z5	X6	Y6	Z6	X7	Y7	Z7	X8	Y8	Z8	X9	Y9	Z9	X10	Y10	Z10	X11	Y11	Z11	X12	Y12	Z12	X13	Y13	Z13	X14	Y14	Z14	X15	Y15	Z15	X16	Y16	Z16	X17	Y17	Z17	X18	Y18	Z18	X19	Y19	Z19	X20	Y20	Z20	X21	Y21	Z21	X22	Y22	Z22
163	1.4051724137931034	3.7726496438942068	0.7843179565668374	0.0	3.702754981524728	0.8060469398175802	0.0	3.5333933651792586	0.42443277954396247	0.0	3.175304437601697	0.17368595293609343	0.0	3.218473407563858	0.00547277828134849	0.0	3.173670079612096	0.023406194708292086	0.0	3.105440965903865	0.16634837807608735	0.0	3.8570674254794013	0.7932247506711761	0.0	4.117082873699684	0.5406318807213925	0.0	3.8947060771259587	0.20464605306902514	0.0	4.035541218366975	0.0668863919532891	0.0	4.025346250390266	0.08920407197487887	0.0	3.8260298491817957	0.1622523677707421	0.0	4.119812492045821	1.2466210118671723	0.0	4.331968296690936	1.4481039930973871	0.0	4.297700043444431	1.2859560943514041	0.0	4.075739794097342	1.1891641108144393	0.0	4.072906544398647	0.9231930150820722	0.0	4.332023564526566	0.8689175067829502	0.0	4.065724806125499	1.2241934602231983	0.0	3.867468842146544	1.1099265842234218	0.0	3.847218386062187	0.8909973168919937	0.0
164	1.4137931034482758	3.807550438603068	0.7872295043137308	0.0	3.738442081787604	0.8084486700316739	0.0	3.561719481154093	0.4295917960985585	0.0	3.1973772883915825	0.18914626550526467	0.0	3.222145578059326	0.01536091959096309	0.0	3.179715076606705	0.035519632469928474	0.0	3.1274737260510848	0.18658414775773802	0.0	3.892017262835068	0.7959029886518622	0.0	4.1532445861866085	0.5440803108643905	0.0	3.95015033377092	0.19271676201584315	0.0	4.099407932886191	0.06093320769972831	0.0	4.088120442337575	0.08206622265692583	0.0	3.8821626526080424	0.14649329687228596	0.0	4.153409649954386	1.250937372956121	0.0	4.368071948068512	1.4502813778345418	0.0	4.331821977483292	1.2888744636573044	0.0	4.114030531793331	1.1919473421124813	0.0	4.108957992994031	0.9258186325769459	0.0	4.359476060090361	0.864375908606024	0.0	4.09306871102717	1.22997169030063	0.0	3.896508444821709	1.1138446254228846	0.0	3.878421786796348	0.8937674648128814	0.0
165	1.4224137931034482	3.8426444651218037	0.7900092523276139	0.0	3.774479411184904	0.8106424401137486	0.0	3.5941109144490806	0.4334839997617256	0.0	3.223791215191754	0.2065803631923603	0.0	3.228953849321634	0.028416167246156112	0.0	3.1892199739251614	0.05083026641838287	0.0	3.153262117790037	0.20908971989520853	0.0	3.926948179210886	0.7983135335155829	0.0	4.187576920256757	0.5457729367382388	0.0	4.002127579557673	0.18182114905083044	0.0	4.1583871931567655	0.055793919748025535	0.0	4.146315528667608	0.07645418466790822	0.0	3.9350417360060117	0.13214531750270003	0.0	4.187373202644525	1.2547671270028984	0.0	4.404309009053027	1.4519849816648527	0.0	4.366022547130055	1.2913939045826202	0.0	4.1521491330749765	1.1942419600223952	0.0	4.14219907112671	0.9277578810767055	0.0	4.382436068417731	0.8560062361148535	0.0	4.120991259622837	1.2350111954251448	0.0	3.9253759623914073	1.1165047810900515	0.0	3.909960160061503	0.8949884081963322	0.0
166	1.4310344827586208	3.877735925619227	0.7925895615244818	0.0	3.8107855897885585	0.8125237864005966	0.0	3.6305937139859727	0.43594459621170406	0.0	3.25488332155826	0.22584669639397265	0.0	3.2394831403904227	0.04479651691647285	0.0	3.2027057903203495	0.06938386343118663	0.0	3.1829133236117175	0.2335772155882114	0.0	3.9615523880131502	0.8003945995200191	0.0	4.220097238805694	0.5457128263254605	0.0	4.050013520346386	0.17197854897149958	0.0	4.211856040314575	0.051268248544988536	0.0	4.199305809411787	0.07228887414224303	0.0	3.9839905844763166	0.11932944896191001	0.0	4.221635432538805	1.25801669513038	0.0	4.440571215327663	1.453150719242736	0.0	4.400303365746361	1.2934054755828375	0.0	4.189947308102067	1.195950573493386	0.0	4.172707431084936	0.9290161180443076	0.0	4.401014388811461	0.8442216298191095	0.0	4.14944593235318	1.2392614898019934	0.0	3.9542204145975934	1.1177772400322896	0.0	3.94216574008925	0.8944327709575075	0.0
167	1.4396551724137931	3.912628497961909	0.7949323825154533	0.0	3.8473133769437715	0.8140168828551713	0.0	3.6710527738222183	0.43692431128018894	0.0	3.2909565027187426	0.2466673378110739	0.0	3.254218223093781	0.06440872247582942	0.0	3.220595996959741	0.09098082047661375	0.0	3.216520687377343	0.25965664444317244	0.0	3.995495731918056	0.8021249018270923	0.0	4.250838160210228	0.5439700541060019	0.0	4.093285357304841	0.1631530384054892	0.0	4.259335907651501	0.047177633420039417	0.0	4.246553143695645	0.0694707091616005	0.0	4.028422483702733	0.10810514126441628	0.0	4.256113795251879	1.2606439432281495	0.0	4.476766522828233	1.4537272773827508	0.0	4.434666259000726	1.294847181632148	0.0	4.227301867179723	1.1970132413206807	0.0	4.200655267259289	0.9296774193605956	0.0	4.4154042798790405	0.8295871265408183	0.0	4.178376235293518	1.2426889257430414	0.0	3.9833429587703044	1.1174750457810834	0.0	3.9754940575656974	0.8918739780799885	0.0
168	1.4482758620689655	3.9471470252874474	0.7970121543986344	0.0	3.88404782326366	0.8150651227630317	0.0	3.7152453102990917	0.4364819819259589	0.0	3.3322546406364633	0.26862735207713145	0.0	3.2735020972821838	0.08691202342013248	0.0	3.2431847156637343	0.11517266949758084	0.0	3.254152358514084	0.28684846068360476	0.0	4.0284333724151	0.8035086549208806	0.0	4.279853354457649	0.5406708337622156	0.0	4.131557654774317	0.15526975199409201	0.0	4.300542676066139	0.04338328237177894	0.0	4.287670193251528	0.0678905600151243	0.0	4.067871998746672	0.09844780465850218	0.0	4.290709910778646	1.2626467934467522	0.0	4.512801759729976	1.453672166153548	0.0	4.469091628216199	1.2957111291070336	0.0	4.264102101281339	1.1974090585743762	0.0	4.226299488779713	0.929888556508626	0.0	4.425895813070775	0.8127840157793906	0.0	4.207738698186979	1.2452768313910885	0.0	4.013183258722317	1.1153843296154684	0.0	4.010494096899794	0.8871233369554657	0.0
